<mxfile host="app.diagrams.net" modified="2023-09-11T06:26:58.147Z" agent="Mozilla/5.0 (X11; Ubuntu; Linux x86_64; rv:108.0) Gecko/20100101 Firefox/108.0" version="21.7.4" etag="HEZPm14Q8Jrr4KzaKdSP" type="github">
  <diagram name="Page-1" id="pBzh94hIpIcuOAprMW3P">
    <mxGraphModel>
      <root>
        <mxCell id="0" />
        <mxCell id="1" parent="0" />
      </root>
    </mxGraphModel>
  </diagram>
</mxfile>
